<svg xmlns="http://www.w3.org/2000/svg" viewBox="0 0 100 100" xmlns="http://www.w3.org/2000/svg">
  <defs>
    <linearGradient id="grad1" x1="0%" y1="0%" x2="100%" y2="100%">
      <stop offset="0%" style="stop-color:#00d4ff;stop-opacity:1" />
      <stop offset="100%" style="stop-color:#0099cc;stop-opacity:1" />
    </linearGradient>
  </defs>
  <circle cx="50" cy="50" r="40" fill="url(#grad1)" />
  <path d="M30,50 C30,30 50,20 70,30 C80,35 85,45 85,55 C85,65 80,75 70,80 C50,90 30,100 30,60 Z" fill="#ff7f50" />
  <path d="M70,30 L90,20 C92,18 95,19 96,21 C97,23 96,26 94,27 L75,38 Z" fill="#ff7f50" />
  <path d="M70,30 L90,40 C92,42 95,41 96,39 C97,37 96,34 94,33 L75,22 Z" fill="#ff7f50" />
  <circle cx="55" cy="50" r="5" fill="#ff7f50" />
</svg>